Coordinates
version=1
nRows=7
nColumns=63
inDegrees=yes

Units are S.I. units (second, meters, Newtons, ...)
If the header above contains a line with 'inDegrees', this indicates whether rotational values are in degrees (yes) or radians (no).

endheader
time	pelvis_tilt	pelvis_list	pelvis_rotation	pelvis_tx	pelvis_ty	pelvis_tz	hip_flexion_r	hip_adduction_r	hip_rotation_r	knee_angle_r	knee_angle_r_beta	ankle_angle_r	subtalar_angle_r	mtp_angle_r	hip_flexion_l	hip_adduction_l	hip_rotation_l	knee_angle_l	knee_angle_l_beta	ankle_angle_l	subtalar_angle_l	mtp_angle_l	L5_S1_Flex_Ext	L5_S1_Lat_Bending	L5_S1_axial_rotation	L4_L5_Flex_Ext	L4_L5_Lat_Bending	L4_L5_axial_rotation	L3_L4_Flex_Ext	L3_L4_Lat_Bending	L3_L4_axial_rotation	L2_L3_Flex_Ext	L2_L3_Lat_Bending	L2_L3_axial_rotation	L1_L2_Flex_Ext	L1_L2_Lat_Bending	L1_L2_axial_rotation	L1_T12_Flex_Ext	L1_T12_Lat_Bending	L1_T12_axial_rotation	Abs_r3	Abs_r2	Abs_r1	Abs_t1	Abs_t2	neck_flexion	neck_bending	neck_rotation	arm_flex_r	arm_add_r	arm_rot_r	elbow_flex_r	pro_sup_r	wrist_flex_r	wrist_dev_r	arm_flex_l	arm_add_l	arm_rot_l	elbow_flex_l	pro_sup_l	wrist_flex_l	wrist_dev_l
      5.11864407	      2.58297249	     -2.34234964	     83.73946220	      0.26301080	      0.88498503	      0.59910416	      3.73368741	      0.29135144	     -9.14743758	     10.07578429	      0.17585561	     27.01145249	     -3.24675111	      0.00000000	      2.81814118	     -1.01925397	     30.10921852	      7.24678806	      0.12648031	     22.64302362	      5.30679974	      0.00000000	     -0.31265180	      0.56715894	      0.04723584	     -0.58062565	      0.75432139	      0.05018808	     -0.51365564	      1.37899024	      0.05018808	     -0.35732974	      1.37899024	      0.04133136	     -0.29032846	      1.15655051	      0.03837912	     -0.17864924	      0.87852919	      0.03542688	     -2.23324051	      6.41581533	      0.26271158	      0.00000000	      0.00000000	     16.02310387	    -15.21236707	     -5.24808323	      5.21920226	    -16.04976706	    155.79309740	      0.94728225	      7.20121968	     -8.24331601	     -3.96849566	     25.42495028	    -12.51379431	    -33.69130018	    149.68010558	     66.60174687	     40.76461810	     25.90133431
      5.13559322	      2.25611096	     -2.29666078	     83.10949538	      0.26473649	      0.88429731	      0.59918812	      3.83464442	      0.02855072	     -7.12865408	     10.05500486	      0.17549294	     28.63767361	     -1.85684409	      0.00000000	      2.80437448	     -0.73003002	     29.03193810	      7.27735719	      0.12701384	     22.86757247	      4.39101110	      0.00000000	     -0.31608243	      0.50136444	      0.17377436	     -0.58699669	      0.66681470	      0.18463525	     -0.51929183	      1.21901749	      0.18463525	     -0.36125061	      1.21901749	      0.15205256	     -0.29351415	      1.02238236	      0.14119166	     -0.18060950	      0.77661351	      0.13033077	     -2.25774521	      5.67153478	      0.96648084	      0.00000000	      0.00000000	     15.69510334	    -14.79688271	     -6.01680566	      5.29623737	    -15.70939386	    157.16380816	      0.87946983	      7.95092372	     -9.45607078	     -4.51871366	     25.27091883	    -12.91617932	    -32.94854178	    149.71564784	     67.18027551	     38.85033666	     25.23105945
      5.15254237	      2.14478580	     -2.33210888	     83.14440650	      0.26524106	      0.88388681	      0.59919469	      3.96798080	     -0.05541832	     -6.35539373	     10.03306216	      0.17510997	     29.30189569	     -1.37520204	      0.00000000	      2.91932545	     -0.65228902	     28.44670837	      7.23761688	      0.12632024	     23.05138695	      3.98588173	      0.00000000	     -0.30683239	      0.46987173	      0.16193531	     -0.56981842	      0.62492940	      0.17205627	     -0.50409493	      1.14244613	      0.17205627	     -0.35067873	      1.14244613	      0.14169340	     -0.28492455	      0.95816244	      0.13157244	     -0.17532403	      0.72783131	      0.12145148	     -2.19167305	      5.31528301	      0.90063561	      0.00000000	      0.00000000	     15.45752981	    -14.50253886	     -6.42738762	      5.38702638	    -15.49488945	    157.47495783	      0.81231127	      7.76514424	     -9.97716584	     -5.11224193	     25.22560456	    -13.11109780	    -32.83951423	    149.71965741	     67.57320213	     38.97313580	     24.80292863
      5.16949153	      2.18902130	     -2.35578715	     83.22181126	      0.26539861	      0.88378474	      0.59911499	      4.11268197	     -0.02188302	     -6.22463982	     10.09498961	      0.17619081	     29.38455061	     -1.32266194	      0.00000000	      2.94564095	     -0.72987757	     28.17682568	      7.09451617	      0.12382267	     23.43901739	      3.77412071	      0.00000000	     -0.30437931	      0.46234151	      0.14121164	     -0.56526281	      0.61491421	      0.15003737	     -0.50006476	      1.12413715	      0.15003737	     -0.34787511	      1.12413715	      0.12356019	     -0.28264662	      0.94280681	      0.11473446	     -0.17392234	      0.71616700	      0.10590873	     -2.17415096	      5.23009965	      0.78537678	      0.00000000	      0.00000000	     15.43571820	    -14.32282975	     -6.66877138	      5.50035582	    -15.36172677	    157.42347894	      0.75073375	      7.58782227	    -10.16700298	     -5.30685316	     25.13931616	    -13.22572216	    -32.81735065	    149.72128783	     67.68042232	     39.15806646	     24.70521786
      5.18644068	      2.16018560	     -2.49096708	     82.88356757	      0.26615140	      0.88364282	      0.59933184	      4.53570299	      0.03511630	     -5.16221665	     10.30900263	      0.17992604	     29.09221389	     -2.95898824	      0.00000000	      3.08638112	     -0.77837390	     27.51822113	      6.98810245	      0.12196540	     24.02500984	      4.22102560	      0.00000000	     -0.29027263	      0.44408541	      0.25003630	     -0.53906531	      0.59063359	      0.26566357	     -0.47688891	      1.07974926	      0.26566357	     -0.33175259	      1.07974926	      0.21878176	     -0.26954717	      0.90557896	      0.20315449	     -0.16586178	      0.68788830	      0.18752722	     -2.07338839	      5.02358294	      1.39062687	      0.00000000	      0.00000000	     15.30471652	    -14.11307196	     -7.45570469	      5.29549501	    -15.27991497	    157.12140737	      0.73528253	      5.26198338	    -10.82015080	     -6.48528783	     25.46711950	    -13.32595152	    -33.03147869	    149.70920369	     72.91253453	     41.05632841	     21.41428812
      5.20338983	      2.26009440	     -2.64777912	     82.71328408	      0.26628836	      0.88368214	      0.59928217	      4.93015293	      0.11072948	     -5.13395146	     10.46377167	      0.18262727	     28.84128049	     -3.65907696	      0.00000000	      3.18791274	     -0.91152278	     27.61243985	      6.75627939	      0.11791932	     24.73614118	      4.04217199	      0.00000000	     -0.27597531	      0.45328659	      0.31626013	     -0.51251374	      0.60287117	      0.33602639	     -0.45339983	      1.10212102	      0.33602639	     -0.31541218	      1.10212102	      0.27672761	     -0.25627067	      0.92434202	      0.25696135	     -0.15769229	      0.70214093	      0.23719510	     -1.97126401	      5.12766859	      1.75894395	      0.00000000	      0.00000000	     15.46318255	    -14.00986542	     -7.71977469	      5.05305785	    -15.28760735	    155.77234405	      0.75692248	      4.25730551	    -11.53003132	     -7.41234771	     25.45721216	    -13.50968035	    -32.72675804	    149.69402868	     73.28252903	     40.91183038	     21.06578958
      5.22033898	      2.39747248	     -2.83470468	     82.47738794	      0.26620917	      0.88391205	      0.59930573	      5.42679986	      0.24061360	     -4.35415253	     10.58523599	      0.18474722	     28.81712834	     -4.58183162	      0.00000000	      3.32363498	     -1.07125928	     27.74074837	      6.40151948	      0.11172759	     25.49113281	      3.66263171	      0.00000000	     -0.26317294	      0.47670756	      0.41117539	     -0.48873846	      0.63402105	      0.43687385	     -0.43236682	      1.15906676	      0.43687385	     -0.30078035	      1.15906676	      0.35977846	     -0.24438239	      0.97210205	      0.33408000	     -0.15037702	      0.73842001	      0.30838154	     -1.87981797	      5.39261125	      2.28683415	      0.00000000	      0.00000000	     15.76838406	    -14.09817572	     -7.90923249	      4.69798421	    -15.36555604	    153.54023198	      0.80922785	      3.27231349	    -11.85927305	     -8.25824376	     25.44246762	    -13.57393940	    -32.35325139	    149.68224307	     73.63927195	     40.48388207	     20.73597813
